<svg width="147" height="28" viewBox="0 0 147 28" fill="none" xmlns="http://www.w3.org/2000/svg">
<path d="M10.232 27C9.56 27 9.008 26.796 8.576 26.388C8.144 25.956 7.928 25.428 7.928 24.804V3.924H12.608V24.804C12.608 25.428 12.38 25.956 11.924 26.388C11.492 26.796 10.928 27 10.232 27ZM2.276 5.94C1.652 5.94 1.124 5.748 0.692 5.364C0.284 4.98 0.08 4.476 0.08 3.852C0.08 3.228 0.284 2.736 0.692 2.376C1.124 1.992 1.652 1.8 2.276 1.8H18.26C18.884 1.8 19.4 1.992 19.808 2.376C20.24 2.76 20.456 3.264 20.456 3.888C20.456 4.512 20.24 5.016 19.808 5.4C19.4 5.76 18.884 5.94 18.26 5.94H2.276ZM36.0572 7.38C36.6812 7.38 37.1972 7.584 37.6052 7.992C38.0132 8.4 38.2172 8.928 38.2172 9.576V24.804C38.2172 25.428 38.0132 25.956 37.6052 26.388C37.1972 26.796 36.6812 27 36.0572 27C35.4332 27 34.9172 26.796 34.5092 26.388C34.1012 25.956 33.8972 25.428 33.8972 24.804V23.04L34.6892 23.364C34.6892 23.676 34.5212 24.06 34.1852 24.516C33.8492 24.948 33.3932 25.38 32.8172 25.812C32.2412 26.244 31.5572 26.616 30.7652 26.928C29.9972 27.216 29.1572 27.36 28.2452 27.36C26.5892 27.36 25.0892 26.94 23.7452 26.1C22.4012 25.236 21.3332 24.06 20.5412 22.572C19.7732 21.06 19.3892 19.332 19.3892 17.388C19.3892 15.42 19.7732 13.692 20.5412 12.204C21.3332 10.692 22.3892 9.516 23.7092 8.676C25.0292 7.812 26.4932 7.38 28.1012 7.38C29.1332 7.38 30.0812 7.536 30.9452 7.848C31.8092 8.16 32.5532 8.556 33.1772 9.036C33.8252 9.516 34.3172 10.008 34.6532 10.512C35.0132 10.992 35.1932 11.4 35.1932 11.736L33.8972 12.204V9.576C33.8972 8.952 34.1012 8.436 34.5092 8.028C34.9172 7.596 35.4332 7.38 36.0572 7.38ZM28.7852 23.4C29.8412 23.4 30.7652 23.136 31.5572 22.608C32.3492 22.08 32.9612 21.36 33.3932 20.448C33.8492 19.536 34.0772 18.516 34.0772 17.388C34.0772 16.236 33.8492 15.204 33.3932 14.292C32.9612 13.38 32.3492 12.66 31.5572 12.132C30.7652 11.604 29.8412 11.34 28.7852 11.34C27.7532 11.34 26.8412 11.604 26.0492 12.132C25.2572 12.66 24.6332 13.38 24.1772 14.292C23.7452 15.204 23.5292 16.236 23.5292 17.388C23.5292 18.516 23.7452 19.536 24.1772 20.448C24.6332 21.36 25.2572 22.08 26.0492 22.608C26.8412 23.136 27.7532 23.4 28.7852 23.4ZM41.7787 24.012C41.5387 23.676 41.4307 23.244 41.4547 22.716C41.4787 22.188 41.7907 21.732 42.3907 21.348C42.7747 21.108 43.1827 21.012 43.6147 21.06C44.0467 21.084 44.4667 21.3 44.8747 21.708C45.5707 22.404 46.3027 22.944 47.0707 23.328C47.8387 23.712 48.7987 23.904 49.9507 23.904C50.3107 23.88 50.7067 23.832 51.1387 23.76C51.5707 23.664 51.9427 23.472 52.2547 23.184C52.5907 22.872 52.7587 22.404 52.7587 21.78C52.7587 21.252 52.5787 20.832 52.2187 20.52C51.8587 20.208 51.3787 19.944 50.7787 19.728C50.2027 19.512 49.5547 19.308 48.8347 19.116C48.0907 18.9 47.3227 18.66 46.5307 18.396C45.7627 18.132 45.0547 17.796 44.4067 17.388C43.7587 16.956 43.2307 16.392 42.8227 15.696C42.4147 15 42.2107 14.124 42.2107 13.068C42.2107 11.868 42.5467 10.848 43.2187 10.008C43.8907 9.168 44.7547 8.52 45.8107 8.064C46.8907 7.608 48.0187 7.38 49.1947 7.38C49.9387 7.38 50.7187 7.476 51.5347 7.668C52.3507 7.836 53.1307 8.124 53.8747 8.532C54.6187 8.916 55.2427 9.432 55.7467 10.08C56.0107 10.44 56.1667 10.872 56.2147 11.376C56.2627 11.88 56.0347 12.336 55.5307 12.744C55.1707 13.032 54.7507 13.164 54.2707 13.14C53.7907 13.092 53.3947 12.924 53.0827 12.636C52.6747 12.108 52.1227 11.688 51.4267 11.376C50.7547 11.064 49.9747 10.908 49.0867 10.908C48.7267 10.908 48.3307 10.956 47.8987 11.052C47.4907 11.124 47.1307 11.304 46.8187 11.592C46.5067 11.856 46.3507 12.288 46.3507 12.888C46.3507 13.44 46.5307 13.884 46.8907 14.22C47.2507 14.532 47.7307 14.796 48.3307 15.012C48.9547 15.204 49.6147 15.396 50.3107 15.588C51.0307 15.78 51.7627 16.008 52.5067 16.272C53.2507 16.536 53.9347 16.884 54.5587 17.316C55.1827 17.748 55.6867 18.312 56.0707 19.008C56.4547 19.68 56.6467 20.544 56.6467 21.6C56.6467 22.824 56.2867 23.868 55.5667 24.732C54.8467 25.596 53.9467 26.256 52.8667 26.712C51.7867 27.144 50.6827 27.36 49.5547 27.36C48.1387 27.36 46.7227 27.12 45.3067 26.64C43.8907 26.136 42.7147 25.26 41.7787 24.012ZM62.7819 27C62.1579 27 61.6419 26.796 61.2339 26.388C60.8259 25.956 60.6219 25.428 60.6219 24.804V2.556C60.6219 1.932 60.8259 1.416 61.2339 1.008C61.6419 0.575999 62.1579 0.36 62.7819 0.36C63.4059 0.36 63.9219 0.575999 64.3299 1.008C64.7379 1.416 64.9419 1.932 64.9419 2.556V24.804C64.9419 25.428 64.7379 25.956 64.3299 26.388C63.9219 26.796 63.4059 27 62.7819 27ZM74.2299 7.74C74.7819 7.74 75.2619 7.968 75.6699 8.424C76.0779 8.88 76.2819 9.324 76.2819 9.756C76.2819 10.332 75.9939 10.872 75.4179 11.376L64.5819 21.348L64.4019 16.38L72.6459 8.424C73.1019 7.968 73.6299 7.74 74.2299 7.74ZM74.7699 26.964C74.1459 26.964 73.6179 26.724 73.1859 26.244L66.5259 19.188L69.8019 16.164L76.2819 23.22C76.7379 23.7 76.9659 24.24 76.9659 24.84C76.9659 25.464 76.7139 25.98 76.2099 26.388C75.7299 26.772 75.2499 26.964 74.7699 26.964ZM83.422 1.8C83.998 1.8 84.502 2.016 84.934 2.448C85.39 2.856 85.618 3.372 85.618 3.996V24.804C85.618 25.428 85.39 25.956 84.934 26.388C84.478 26.796 83.95 27 83.35 27C82.678 27 82.138 26.796 81.73 26.388C81.322 25.956 81.118 25.428 81.118 24.804V3.996C81.118 3.372 81.334 2.856 81.766 2.448C82.198 2.016 82.75 1.8 83.422 1.8ZM99.37 1.8C100.042 1.8 100.582 2.016 100.99 2.448C101.398 2.856 101.602 3.372 101.602 3.996V24.804C101.602 25.428 101.386 25.956 100.954 26.388C100.546 26.796 99.994 27 99.298 27C98.722 27 98.206 26.796 97.75 26.388C97.318 25.956 97.102 25.428 97.102 24.804V3.996C97.102 3.372 97.33 2.856 97.786 2.448C98.242 2.016 98.77 1.8 99.37 1.8ZM83.314 12.276H99.37V16.416H83.314V12.276ZM120.925 7.74C121.549 7.74 122.065 7.956 122.473 8.388C122.881 8.796 123.085 9.312 123.085 9.936V19.08C123.085 21.624 122.377 23.64 120.961 25.128C119.545 26.616 117.505 27.36 114.841 27.36C112.177 27.36 110.137 26.616 108.721 25.128C107.329 23.64 106.633 21.624 106.633 19.08V9.936C106.633 9.312 106.837 8.796 107.245 8.388C107.653 7.956 108.169 7.74 108.793 7.74C109.417 7.74 109.933 7.956 110.341 8.388C110.749 8.796 110.953 9.312 110.953 9.936V19.08C110.953 20.544 111.277 21.636 111.925 22.356C112.573 23.052 113.545 23.4 114.841 23.4C116.161 23.4 117.145 23.052 117.793 22.356C118.441 21.636 118.765 20.544 118.765 19.08V9.936C118.765 9.312 118.969 8.796 119.377 8.388C119.785 7.956 120.301 7.74 120.925 7.74ZM137.734 7.38C139.414 7.38 140.914 7.812 142.234 8.676C143.578 9.516 144.634 10.68 145.402 12.168C146.194 13.656 146.59 15.384 146.59 17.352C146.59 19.32 146.194 21.06 145.402 22.572C144.634 24.06 143.59 25.236 142.27 26.1C140.974 26.94 139.51 27.36 137.878 27.36C136.918 27.36 136.018 27.204 135.178 26.892C134.338 26.58 133.594 26.184 132.946 25.704C132.322 25.224 131.83 24.744 131.47 24.264C131.134 23.76 130.966 23.34 130.966 23.004L132.082 22.536V25.164C132.082 25.788 131.878 26.316 131.47 26.748C131.062 27.156 130.546 27.36 129.922 27.36C129.298 27.36 128.782 27.156 128.374 26.748C127.966 26.34 127.762 25.812 127.762 25.164V2.556C127.762 1.932 127.966 1.416 128.374 1.008C128.782 0.575999 129.298 0.36 129.922 0.36C130.546 0.36 131.062 0.575999 131.47 1.008C131.878 1.416 132.082 1.932 132.082 2.556V11.7L131.47 11.376C131.47 11.064 131.638 10.692 131.974 10.26C132.31 9.804 132.766 9.36 133.342 8.928C133.918 8.472 134.578 8.1 135.322 7.812C136.09 7.524 136.894 7.38 137.734 7.38ZM137.194 11.34C136.138 11.34 135.214 11.604 134.422 12.132C133.63 12.66 133.006 13.38 132.55 14.292C132.118 15.18 131.902 16.2 131.902 17.352C131.902 18.48 132.118 19.512 132.55 20.448C133.006 21.36 133.63 22.08 134.422 22.608C135.214 23.136 136.138 23.4 137.194 23.4C138.25 23.4 139.162 23.136 139.93 22.608C140.722 22.08 141.334 21.36 141.766 20.448C142.222 19.512 142.45 18.48 142.45 17.352C142.45 16.2 142.222 15.18 141.766 14.292C141.334 13.38 140.722 12.66 139.93 12.132C139.162 11.604 138.25 11.34 137.194 11.34Z" fill="#3880FF"/>
<path d="M-1 16.128H78.4059V17.928H-1V16.128Z" fill="#3880FF"/>
</svg>
